<?xml version="1.0" encoding="iso-8859-1"?>
<!-- Uploaded to: SVG Repo, www.svgrepo.com, Generator: SVG Repo Mixer Tools -->
<svg fill="#55dd77" height="800px" width="800px" version="1.1" id="Layer_1" xmlns="http://www.w3.org/2000/svg" xmlns:xlink="http://www.w3.org/1999/xlink" 
	 viewBox="0 0 512.001 512.001" xml:space="preserve">
<g>
	<g>
		<path d="M292.321,273.891c-2.397-3.607-7.263-4.588-10.871-2.192c-3.683,2.447-12.981,4.916-25.449,4.916
			c-12.47,0-21.767-2.47-25.45-4.917c-3.607-2.394-8.476-1.415-10.873,2.193c-2.396,3.607-1.416,8.474,2.191,10.871
			c7.103,4.72,19.862,7.538,34.132,7.538c14.268,0,27.027-2.818,34.13-7.538C293.736,282.365,294.717,277.498,292.321,273.891z"/>
	</g>
</g>
<g>
	<g>
		<path d="M230.474,182.437c-6.125-5.008-17.033-7.999-29.178-7.999c-12.145,0-23.051,2.989-29.177,7.998
			c-3.353,2.742-3.849,7.682-1.107,11.035c2.742,3.352,7.682,3.849,11.035,1.107c2.624-2.147,9.768-4.456,19.249-4.456
			c9.482,0,16.625,2.31,19.25,4.456c1.458,1.191,3.213,1.771,4.959,1.771c2.272,0,4.525-0.982,6.076-2.878
			C234.323,190.119,233.827,185.179,230.474,182.437z"/>
	</g>
</g>
<g>
	<g>
		<circle cx="201.3" cy="214.872" r="13.418"/>
	</g>
</g>
<g>
	<g>
		<path d="M339.878,182.437c-6.125-5.008-17.033-7.998-29.177-7.998c-12.145,0-23.052,2.99-29.178,7.999
			c-3.353,2.742-3.849,7.682-1.107,11.035c1.551,1.896,3.804,2.878,6.076,2.878c1.745,0,3.503-0.58,4.959-1.771
			c2.624-2.147,9.768-4.456,19.25-4.456c9.48,0,16.624,2.31,19.249,4.456c3.353,2.743,8.294,2.246,11.035-1.107
			S343.231,185.179,339.878,182.437z"/>
	</g>
</g>
<g>
	<g>
		<circle cx="310.701" cy="214.872" r="13.418"/>
	</g>
</g>
<g>
	<g>
		<path d="M432.501,501.212c-10.92-26.946-28.238-51.452-50.079-70.866c-3.237-2.878-8.194-2.585-11.071,0.652
			c-2.878,3.237-2.586,8.193,0.651,11.071c17.091,15.192,31.164,33.777,41.151,54.246H98.845
			c3.927-8.054,8.493-15.835,13.639-23.234c2.473-3.556,1.595-8.443-1.961-10.915c-3.557-2.473-8.443-1.595-10.915,1.961
			c-8.076,11.612-14.841,24.091-20.108,37.087c-0.98,2.417-0.693,5.163,0.763,7.327c1.458,2.163,3.896,3.461,6.504,3.461h338.465
			c2.609,0,5.046-1.297,6.504-3.461C433.194,506.377,433.48,503.63,432.501,501.212z"/>
	</g>
</g>
<g>
	<g>
		<path d="M407.089,181.843V151.09C407.089,67.778,339.311,0,256,0c-33.718,0-65.619,10.871-92.256,31.439
			c-3.429,2.647-4.061,7.572-1.415,11.001c2.649,3.427,7.573,4.061,11,1.415c23.867-18.43,52.454-28.171,82.671-28.171
			c74.664,0,135.406,60.742,135.406,135.406v21.726c-1.215-0.386-2.453-0.697-3.7-0.972c-0.104-0.023-1.339-0.248-1.339-0.293
			c-0.027-8.141-0.941-16.375-2.555-24.35c-1.657-8.185-4.306-16.182-7.628-23.835c-2.241-5.162-4.886-10.143-7.848-14.927
			c-1.309-2.115-3.695-3.572-6.264-3.704c-0.055-0.003-0.111,0.003-0.166,0.002c-2.505-0.069-4.907,1.046-6.446,3.039
			c-2.725,3.531-6.824,5.556-11.244,5.556c-7.837,0-14.212-6.375-14.212-14.212c0-4.331-3.511-7.842-7.842-7.842
			c-4.331,0-7.842,3.511-7.842,7.842c0,7.837-6.376,14.212-14.212,14.212c-7.836,0-14.212-6.375-14.212-14.212
			c0-4.331-3.511-7.842-7.842-7.842c-4.331,0-7.842,3.511-7.842,7.842c0,7.837-6.375,14.212-14.212,14.212
			s-14.212-6.375-14.212-14.212c0-4.331-3.511-7.842-7.842-7.842s-7.842,3.511-7.842,7.842c0,7.837-6.375,14.212-14.212,14.212
			c-7.837,0-14.212-6.375-14.212-14.212c0-4.331-3.511-7.842-7.842-7.842c-4.331,0-7.842,3.511-7.842,7.842
			c0,7.837-6.375,14.212-14.212,14.212c-4.421,0-8.52-2.025-11.244-5.556c-1.536-1.991-3.93-3.105-6.438-3.039
			c-0.059,0.001-0.115-0.005-0.175-0.002c-2.54,0.124-4.928,1.545-6.264,3.704c-8.82,14.245-14.733,30.4-16.902,47.027
			c-0.611,4.681-0.993,9.36-1.087,14.08c-0.014,0.668-0.039,1.336-0.041,2.005c-0.015,0.084-1.262,0.276-1.339,0.293
			c-1.247,0.275-2.485,0.587-3.7,0.972V151.09c0-31.714,11.196-62.557,31.526-86.847c2.779-3.322,2.341-8.268-0.981-11.047
			c-3.32-2.779-8.267-2.341-11.047,0.981c-22.688,27.107-35.182,61.524-35.182,96.913v30.754
			c-8.778,7.887-14.315,19.312-14.315,31.988c0.003,21.686,16.135,39.666,37.027,42.595c8.119,46.007,40.445,83.766,83.306,99.611
			v31.648c-7.961,1.935-15.81,4.387-23.412,7.319c-25.422,9.806-48.951,25.373-68.043,45.016c-3.019,3.105-2.948,8.071,0.158,11.089
			c3.105,3.019,8.07,2.949,11.09-0.158c7.822-8.048,16.431-15.33,25.643-21.737c8.888-6.182,18.918-12.79,29.194-16.371
			c5.595,10.039,10.513,19.31,19.178,27.269c13.897,12.763,32.38,20.046,51.265,20.046c23.43,0,46.169-11.462,60.429-29.984
			c4.182-5.432,6.578-11.651,10.04-17.367c7.558,3.067,14.842,7.184,21.756,11.491c3.677,2.291,8.513,1.166,10.803-2.509
			c2.29-3.676,1.167-8.513-2.509-10.803c-9.932-6.187-20.45-11.466-31.337-15.72c0,0-0.693-0.262-0.704-0.267
			c0,0-0.035-0.013-0.043-0.016c-7.583-2.921-15.413-5.369-23.359-7.3v-31.648c42.862-15.844,75.187-53.604,83.306-99.611
			c20.892-2.929,37.024-20.909,37.024-42.595C421.405,201.155,415.867,189.73,407.089,181.843z M106.278,213.832
			c0-9.189,4.577-17.346,11.569-22.307c0.054-0.039,0.11-0.073,0.164-0.111c2.287-1.597,4.826-2.848,7.489-3.68
			c0.044-0.014,0.089-0.024,0.132-0.038v46.01c0,1.618,0.04,3.233,0.099,4.848c0.019,0.49,0.03,0.981,0.054,1.472
			C114.516,236.652,106.278,226.186,106.278,213.832z M311.759,407.085c-0.019,0.045-0.034,0.091-0.053,0.136
			c-3.46,8.369-8.834,15.992-15.647,21.966c-11.032,9.673-25.353,15.289-40.059,15.289c-9.537,0-18.979-2.349-27.474-6.665
			c-12.672-6.436-22.899-17.586-28.285-30.727c6.579-2.211,13.319-4.038,20.121-5.45c3.639-0.756,6.249-3.962,6.249-7.679v-33.218
			c0.729,0.168,1.462,0.318,2.194,0.473c8.927,1.896,18.071,2.862,27.197,2.862c9.863,0.001,19.777-1.115,29.39-3.333v33.218
			c0,3.717,2.609,6.923,6.249,7.679C298.441,403.047,305.182,404.874,311.759,407.085z M370.684,178.655v55.052
			c0,4.536-0.274,9.072-0.807,13.576c-5.427,45.801-37.948,83.41-81.045,96.31c-10.623,3.169-21.744,4.796-32.832,4.796
			c-11.132,0-22.17-1.606-32.832-4.796c-43.096-12.9-75.617-50.509-81.045-96.31c-0.533-4.503-0.807-9.04-0.807-13.576v-55.052
			v-6.699c0-13.374,2.53-26.529,7.404-38.807c1.125-2.834,2.375-5.62,3.746-8.351c4.562,2.736,9.819,4.216,15.318,4.216
			c8.722,0,16.583-3.755,22.054-9.732c5.47,5.978,13.331,9.732,22.054,9.732c8.722,0,16.583-3.754,22.054-9.732
			c5.47,5.978,13.331,9.732,22.054,9.732s16.583-3.754,22.054-9.732c5.47,5.978,13.331,9.732,22.054,9.732
			c8.722,0,16.584-3.755,22.054-9.732c5.47,5.978,13.331,9.732,22.054,9.732c5.5,0,10.757-1.479,15.318-4.216
			c1.372,2.731,2.621,5.518,3.746,8.351c4.874,12.277,7.404,25.432,7.404,38.807V178.655z M386.214,240.028
			c0.024-0.49,0.036-0.981,0.053-1.472c0.06-1.617,0.099-3.231,0.099-4.848v-46.011c0.044,0.014,0.089,0.024,0.132,0.038
			c2.659,0.83,5.205,2.084,7.489,3.679c0.054,0.038,0.11,0.073,0.164,0.111c6.993,4.96,11.569,13.118,11.569,22.307
			C405.721,226.186,397.483,236.652,386.214,240.028z"/>
	</g>
</g>
</svg>